<mxfile host="app.diagrams.net" modified="2024-02-05T21:30:56.995Z" agent="Mozilla/5.0 (Macintosh; Intel Mac OS X 10_15_7) AppleWebKit/605.1.15 (KHTML, like Gecko) Version/17.1 Safari/605.1.15" etag="JzGnsV-fMNXs2sL5IPW4" version="23.1.1" type="device">
  <diagram name="Page-1" id="c7H3qpi7AMbTxXDtQsO3">
    <mxGraphModel dx="1026" dy="692" grid="1" gridSize="10" guides="1" tooltips="1" connect="1" arrows="1" fold="1" page="1" pageScale="1" pageWidth="827" pageHeight="1169" background="#D9F3F8" math="0" shadow="0">
      <root>
        <mxCell id="0" />
        <mxCell id="1" parent="0" />
        <mxCell id="40wxYmghadUbwMUUFd_Z-1" value="" style="shape=umlLifeline;perimeter=lifelinePerimeter;whiteSpace=wrap;html=1;container=1;dropTarget=0;collapsible=0;recursiveResize=0;outlineConnect=0;portConstraint=eastwest;newEdgeStyle={&quot;curved&quot;:0,&quot;rounded&quot;:0};participant=umlActor;fillColor=none;size=43;" vertex="1" parent="1">
          <mxGeometry x="250.5" y="77" width="20" height="283" as="geometry" />
        </mxCell>
        <mxCell id="40wxYmghadUbwMUUFd_Z-2" value="" style="html=1;points=[[0,0,0,0,5],[0,1,0,0,-5],[1,0,0,0,5],[1,1,0,0,-5]];perimeter=orthogonalPerimeter;outlineConnect=0;targetShapes=umlLifeline;portConstraint=eastwest;newEdgeStyle={&quot;curved&quot;:0,&quot;rounded&quot;:0};fillColor=#080606;strokeColor=#000000;" vertex="1" parent="40wxYmghadUbwMUUFd_Z-1">
          <mxGeometry x="5" y="73" width="10" height="177" as="geometry" />
        </mxCell>
        <mxCell id="40wxYmghadUbwMUUFd_Z-3" value="ICS Counsellor&lt;br&gt;&lt;span style=&quot;font-weight: normal;&quot;&gt;(Actor)&lt;/span&gt;" style="text;align=center;fontStyle=1;verticalAlign=middle;spacingLeft=3;spacingRight=3;strokeColor=none;rotatable=0;points=[[0,0.5],[1,0.5]];portConstraint=eastwest;html=1;fontFamily=Poppins;fontSource=https%3A%2F%2Ffonts.googleapis.com%2Fcss%3Ffamily%3DPoppins;" vertex="1" parent="1">
          <mxGeometry x="220.5" y="40" width="80" height="26" as="geometry" />
        </mxCell>
        <mxCell id="40wxYmghadUbwMUUFd_Z-4" value="" style="html=1;verticalAlign=bottom;endArrow=block;curved=0;rounded=0;" edge="1" parent="1">
          <mxGeometry x="-0.0008" relative="1" as="geometry">
            <mxPoint x="265.5" y="189.5" as="sourcePoint" />
            <mxPoint x="505.5" y="189.5" as="targetPoint" />
            <mxPoint as="offset" />
          </mxGeometry>
        </mxCell>
        <mxCell id="40wxYmghadUbwMUUFd_Z-5" value="post_blog&lt;br&gt;(content, author)" style="edgeLabel;html=1;align=center;verticalAlign=middle;resizable=0;points=[];fontFamily=Poppins;fontSource=https%3A%2F%2Ffonts.googleapis.com%2Fcss%3Ffamily%3DPoppins;labelBackgroundColor=#D9F3F8;" vertex="1" connectable="0" parent="40wxYmghadUbwMUUFd_Z-4">
          <mxGeometry x="-0.0366" y="-2" relative="1" as="geometry">
            <mxPoint x="-1" y="-19" as="offset" />
          </mxGeometry>
        </mxCell>
        <mxCell id="40wxYmghadUbwMUUFd_Z-8" value="&lt;font data-font-src=&quot;https://fonts.googleapis.com/css?family=Poppins&quot; face=&quot;Poppins&quot;&gt;Blogs &lt;br&gt;DB&lt;/font&gt;" style="shape=umlLifeline;perimeter=lifelinePerimeter;whiteSpace=wrap;html=1;container=1;dropTarget=0;collapsible=0;recursiveResize=0;outlineConnect=0;portConstraint=eastwest;newEdgeStyle={&quot;curved&quot;:0,&quot;rounded&quot;:0};" vertex="1" parent="1">
          <mxGeometry x="460.5" y="70" width="100" height="290" as="geometry" />
        </mxCell>
        <mxCell id="40wxYmghadUbwMUUFd_Z-9" value="" style="html=1;points=[[0,0,0,0,5],[0,1,0,0,-5],[1,0,0,0,5],[1,1,0,0,-5]];perimeter=orthogonalPerimeter;outlineConnect=0;targetShapes=umlLifeline;portConstraint=eastwest;newEdgeStyle={&quot;curved&quot;:0,&quot;rounded&quot;:0};fillColor=#080606;strokeColor=#000000;" vertex="1" parent="40wxYmghadUbwMUUFd_Z-8">
          <mxGeometry x="45" y="90" width="10" height="130" as="geometry" />
        </mxCell>
        <mxCell id="40wxYmghadUbwMUUFd_Z-10" value="" style="html=1;verticalAlign=bottom;endArrow=open;dashed=1;endSize=8;curved=0;rounded=0;" edge="1" parent="1">
          <mxGeometry relative="1" as="geometry">
            <mxPoint x="510.0000000000001" y="269" as="sourcePoint" />
            <mxPoint x="265.5" y="269" as="targetPoint" />
          </mxGeometry>
        </mxCell>
        <mxCell id="40wxYmghadUbwMUUFd_Z-11" value="blog posted sucessfully" style="edgeLabel;html=1;align=center;verticalAlign=middle;resizable=0;points=[];fontFamily=Poppins;fontSource=https%3A%2F%2Ffonts.googleapis.com%2Fcss%3Ffamily%3DPoppins;labelBackgroundColor=#D9F3F8;" vertex="1" connectable="0" parent="40wxYmghadUbwMUUFd_Z-10">
          <mxGeometry x="0.0342" y="-1" relative="1" as="geometry">
            <mxPoint x="-3" y="-16" as="offset" />
          </mxGeometry>
        </mxCell>
      </root>
    </mxGraphModel>
  </diagram>
</mxfile>
